<svg width="15" height="27" viewBox="0 0 15 27" fill="none" xmlns="http://www.w3.org/2000/svg">
<path d="M2.20711 0.292892C1.81658 -0.0976315 1.18342 -0.0976315 0.792893 0.292892C0.402369 0.683418 0.402369 1.31658 0.792893 1.70711L2.20711 0.292892ZM14 13.5L14.7071 14.2071C15.0976 13.8166 15.0976 13.1834 14.7071 12.7929L14 13.5ZM0.792893 25.2929C0.402369 25.6834 0.402369 26.3166 0.792893 26.7071C1.18342 27.0976 1.81658 27.0976 2.20711 26.7071L0.792893 25.2929ZM0.792893 1.70711L13.2929 14.2071L14.7071 12.7929L2.20711 0.292892L0.792893 1.70711ZM13.2929 12.7929L0.792893 25.2929L2.20711 26.7071L14.7071 14.2071L13.2929 12.7929Z" fill="#F5BFAB"/>
</svg>
