<svg width="15" height="27" viewBox="0 0 15 27" fill="none" xmlns="http://www.w3.org/2000/svg">
<path d="M12.7929 26.7071C13.1834 27.0976 13.8166 27.0976 14.2071 26.7071C14.5976 26.3166 14.5976 25.6834 14.2071 25.2929L12.7929 26.7071ZM1 13.5L0.292893 12.7929C-0.0976315 13.1834 -0.0976315 13.8166 0.292893 14.2071L1 13.5ZM14.2071 1.70711C14.5976 1.31658 14.5976 0.683417 14.2071 0.292893C13.8166 -0.0976311 13.1834 -0.0976311 12.7929 0.292893L14.2071 1.70711ZM14.2071 25.2929L1.70711 12.7929L0.292893 14.2071L12.7929 26.7071L14.2071 25.2929ZM1.70711 14.2071L14.2071 1.70711L12.7929 0.292893L0.292893 12.7929L1.70711 14.2071Z" fill="#F5BFAB"/>
</svg>
