<svg width="7" height="12" viewBox="0 0 7 12" fill="none" xmlns="http://www.w3.org/2000/svg">
<path d="M5.64645 11.3536C5.84171 11.5488 6.15829 11.5488 6.35355 11.3536C6.54882 11.1583 6.54882 10.8417 6.35355 10.6464L5.64645 11.3536ZM1 6L0.646447 5.64645C0.451184 5.84171 0.451184 6.15829 0.646447 6.35355L1 6ZM6.35355 1.35355C6.54882 1.15829 6.54882 0.841709 6.35355 0.646447C6.15829 0.451184 5.84171 0.451184 5.64645 0.646447L6.35355 1.35355ZM6.35355 10.6464L1.35355 5.64645L0.646447 6.35355L5.64645 11.3536L6.35355 10.6464ZM1.35355 6.35355L6.35355 1.35355L5.64645 0.646447L0.646447 5.64645L1.35355 6.35355Z" fill="#F5BFAB"/>
</svg>
