<svg width="19" height="34" viewBox="0 0 19 34" fill="none" xmlns="http://www.w3.org/2000/svg">
<path d="M15.9393 33.0607C16.5251 33.6464 17.4749 33.6464 18.0607 33.0607C18.6464 32.4749 18.6464 31.5251 18.0607 30.9393L15.9393 33.0607ZM2 17L0.939339 15.9393C0.658033 16.2206 0.5 16.6022 0.5 17C0.5 17.3978 0.658033 17.7794 0.939339 18.0607L2 17ZM18.0607 3.06066C18.6464 2.47487 18.6464 1.52513 18.0607 0.93934C17.4749 0.353553 16.5251 0.353553 15.9393 0.93934L18.0607 3.06066ZM18.0607 30.9393L3.06066 15.9393L0.939339 18.0607L15.9393 33.0607L18.0607 30.9393ZM3.06066 18.0607L18.0607 3.06066L15.9393 0.93934L0.939339 15.9393L3.06066 18.0607Z" fill="#F5BFAB"/>
</svg>
