<svg width="19" height="34" viewBox="0 0 19 34" fill="none" xmlns="http://www.w3.org/2000/svg">
<path d="M3.06066 0.939341C2.47487 0.353554 1.52513 0.353554 0.93934 0.939341C0.353553 1.52513 0.353553 2.47487 0.93934 3.06066L3.06066 0.939341ZM17 17L18.0607 18.0607C18.342 17.7794 18.5 17.3978 18.5 17C18.5 16.6022 18.342 16.2206 18.0607 15.9393L17 17ZM0.93934 30.9393C0.353553 31.5251 0.353553 32.4749 0.93934 33.0607C1.52513 33.6464 2.47487 33.6464 3.06066 33.0607L0.93934 30.9393ZM0.93934 3.06066L15.9393 18.0607L18.0607 15.9393L3.06066 0.939341L0.93934 3.06066ZM15.9393 15.9393L0.93934 30.9393L3.06066 33.0607L18.0607 18.0607L15.9393 15.9393Z" fill="#F5BFAB"/>
</svg>
