<svg width="115" height="15" viewBox="0 0 115 15" fill="none" xmlns="http://www.w3.org/2000/svg">
<path d="M7.5 0L9.18386 5.18237H14.6329L10.2245 8.38525L11.9084 13.5676L7.5 10.3647L3.09161 13.5676L4.77547 8.38525L0.367076 5.18237H5.81614L7.5 0Z" fill="#A40122"/>
<path d="M32.5 0L34.1839 5.18237H39.6329L35.2245 8.38525L36.9084 13.5676L32.5 10.3647L28.0916 13.5676L29.7755 8.38525L25.3671 5.18237H30.8161L32.5 0Z" fill="#A40122"/>
<path d="M57.5 0L59.1839 5.18237H64.6329L60.2245 8.38525L61.9084 13.5676L57.5 10.3647L53.0916 13.5676L54.7755 8.38525L50.3671 5.18237H55.8161L57.5 0Z" fill="#A40122"/>
<path d="M82.5 0L84.1839 5.18237H89.6329L85.2245 8.38525L86.9084 13.5676L82.5 10.3647L78.0916 13.5676L79.7755 8.38525L75.3671 5.18237H80.8161L82.5 0Z" fill="#A40122"/>
<path d="M107.5 0L109.184 5.18237H114.633L110.225 8.38525L111.908 13.5676L107.5 10.3647L103.092 13.5676L104.775 8.38525L100.367 5.18237H105.816L107.5 0Z" fill="#A40122"/>
</svg>
